# xmcd
#
# Track frame offsets:
#	150
#	18910
#	34600
#	75440
#	96590
#	115102
#	131567
#	144272
#	160855
#
# Disc length: 2433 seconds
#
# Revision: 0
# Processed by: cddbd v1.5.2PL0 Copyright (c) Steve Scherf et al.
# Submitted via: EasyCDDAExtractor 4.6.9.1
#
DISCID=66097f09
DTITLE=Tramline  - Somewhere Down The Line
DYEAR=1996
DGENRE=Blues
TTITLE0=Harpoon man
TTITLE1=National Blues
TTITLE2=Sorry sorry
TTITLE3=Look over yonder wall
TTITLE4=Rock and roll woman
TTITLE5=Somewhere down the line
TTITLE6=Mazurka
TTITLE7=Statesborough Blues
TTITLE8=Killing Floor
EXTD=
EXTT0=
EXTT1=
EXTT2=
EXTT3=
EXTT4=
EXTT5=
EXTT6=
EXTT7=
EXTT8=
PLAYORDER=
